<?xml version="1.0" encoding="UTF-8" standalone="no"?>
<!DOCTYPE svg PUBLIC "-//W3C//DTD SVG 1.1//EN" "http://www.w3.org/Graphics/SVG/1.1/DTD/svg11.dtd">
<svg width="100%" height="100%" viewBox="0 0 522 522" version="1.1" xmlns="http://www.w3.org/2000/svg" xmlns:xlink="http://www.w3.org/1999/xlink" xml:space="preserve" xmlns:serif="http://www.serif.com/" style="fill-rule:evenodd;clip-rule:evenodd;stroke-linejoin:round;stroke-miterlimit:2;">
    <g transform="matrix(1,0,0,1,-662.325,-442.383)">
        <g transform="matrix(1,0,0,1,0,112)">
            <g transform="matrix(1,0,0,1,0,-112)">
                <path d="M922.911,442.383C779.09,442.383 662.325,559.147 662.325,702.969C662.325,846.79 779.09,963.554 922.911,963.554C1066.73,963.554 1183.5,846.79 1183.5,702.969C1183.5,559.147 1066.73,442.383 922.911,442.383ZM922.911,475.617C1048.39,475.617 1150.26,577.49 1150.26,702.969C1150.26,828.447 1048.39,930.32 922.911,930.32C797.433,930.32 695.56,828.447 695.56,702.969C695.56,577.49 797.433,475.617 922.911,475.617ZM922.759,896.652L821.1,868.43L798.446,614.337L1047.38,614.337L1024.7,868.391L922.759,896.652ZM853.173,760.516L961.178,760.516L957.56,800.933L922.803,810.314L922.803,810.316L922.775,810.324L888.068,800.952L885.849,776.098L854.566,776.098L858.931,825.03L922.768,842.75L922.911,842.711L922.911,842.705L986.69,825.03L987.158,819.764L994.483,737.721L995.243,729.352L1000.87,666.277L844.768,666.277L847.6,697.44L966.716,697.44L963.88,729.352L850.38,729.352L853.173,760.516ZM902.322,545.285L940.067,545.285L940.067,559.01L918.107,559.01L918.107,561.755L940.067,561.755L940.067,593.324L902.324,593.324L902.324,578.911L924.284,578.911L924.284,576.166L902.322,576.166L902.322,545.285ZM985.361,559.01L963.401,559.01L963.401,561.755L985.361,561.755L985.361,593.324L947.617,593.324L947.617,578.911L969.577,578.911L969.577,576.166L947.618,576.166L947.618,545.285L985.361,545.285L985.361,559.01ZM857.03,545.285L894.774,545.285L894.774,561.069L872.815,561.069L872.815,576.854L894.776,576.854L894.776,592.637L857.03,592.637L857.03,545.285Z" style="fill:rgb(22,22,22);"/>
            </g>
        </g>
    </g>
</svg>
