<?xml version="1.0" encoding="UTF-8" standalone="no"?>
<!DOCTYPE svg PUBLIC "-//W3C//DTD SVG 1.1//EN" "http://www.w3.org/Graphics/SVG/1.1/DTD/svg11.dtd">
<svg width="100%" height="100%" viewBox="0 0 467 467" version="1.1" xmlns="http://www.w3.org/2000/svg" xmlns:xlink="http://www.w3.org/1999/xlink" xml:space="preserve" xmlns:serif="http://www.serif.com/" style="fill-rule:evenodd;clip-rule:evenodd;stroke-linejoin:round;stroke-miterlimit:2;">
    <g transform="matrix(1,0,0,1,-1001.31,-7024.18)">
        <g transform="matrix(1,0,0,1,0,6392)">
            <g transform="matrix(0.93328,0,0,0.93328,995.714,626.58)">
                <path d="M256,6C118.2,6 6,118.2 6,256C6,393.8 118.2,506 256,506C393.8,506 506,393.9 506,256C506,118.1 393.9,6 256,6ZM325.3,154.3C325.3,156.4 323.6,158.1 321.5,158.1L291.4,158.1C284,158.1 278,164.1 278,171.5L278,203L321.1,203C323.2,203.2 324.7,205 324.5,207.1L320.7,251.5C320.5,253.5 318.9,255 316.9,255L277.9,255L277.9,402.3C277.9,404.4 276.2,406.1 274.1,406.1L220.3,406.1C218.2,406.1 216.5,404.4 216.5,402.3L216.5,254.8L189.6,254.8C187.5,254.8 185.8,253.1 185.8,251L185.8,206.6C185.8,204.5 187.5,202.8 189.6,202.8L216.5,202.8L216.5,160C216.5,130.2 240.7,106 270.5,106L321.3,106C323.4,106 325.1,107.7 325.1,109.8L325.1,154.3L325.3,154.3Z" style="fill:rgb(250,250,250);fill-rule:nonzero;"/>
            </g>
        </g>
    </g>
</svg>
