<?xml version="1.0" encoding="UTF-8" standalone="no"?>
<!DOCTYPE svg PUBLIC "-//W3C//DTD SVG 1.1//EN" "http://www.w3.org/Graphics/SVG/1.1/DTD/svg11.dtd">
<svg width="100%" height="100%" viewBox="0 0 124 124" version="1.1" xmlns="http://www.w3.org/2000/svg" xmlns:xlink="http://www.w3.org/1999/xlink" xml:space="preserve" xmlns:serif="http://www.serif.com/" style="fill-rule:evenodd;clip-rule:evenodd;stroke-linejoin:round;stroke-miterlimit:2;">
    <g transform="matrix(1,0,0,1,-6319.18,-8882.59)">
        <path d="M6381,8882.59C6415.12,8882.59 6442.82,8910.29 6442.82,8944.41C6442.82,8978.53 6415.12,9006.23 6381,9006.23C6346.88,9006.23 6319.18,8978.53 6319.18,8944.41C6319.18,8910.29 6346.88,8882.59 6381,8882.59ZM6362.03,8974.6C6363.41,8974.6 6364.76,8974.47 6365.94,8974.23L6366.03,8974.22C6367.19,8973.97 6368.3,8973.59 6369.25,8973.13C6369.69,8969.84 6370.89,8967.32 6372.85,8965.55L6372.64,8965.53C6370.02,8965.27 6367.45,8964.8 6365.31,8964.23L6365.1,8964.18C6362.69,8963.5 6360.39,8962.51 6358.4,8961.36L6358.3,8961.31C6356.07,8960.08 6354.11,8958.43 6352.48,8956.43C6350.91,8954.47 6349.62,8951.9 6348.62,8948.71C6347.61,8945.53 6347.11,8941.85 6347.11,8937.69C6347.11,8931.76 6349.05,8926.7 6352.92,8922.54C6351.02,8918.82 6350.69,8911.91 6353.44,8907.53C6357.56,8906.75 6365.77,8907.15 6369.02,8913.33C6368.9,8913.36 6368.77,8913.4 6368.65,8913.43L6369.03,8913.34L6369.02,8913.33C6373.52,8912.09 6378.25,8911.43 6383.15,8911.43C6388.18,8911.43 6393.04,8912.13 6397.27,8913.34L6400.07,8911.58L6399.89,8911.68C6402,8910.4 6404.22,8909.31 6406.83,8908.34C6409.43,8907.36 6411.41,8907.09 6412.79,8907.53C6414.99,8913.07 6415.19,8918.07 6413.38,8922.54C6417.25,8926.7 6419.19,8931.76 6419.19,8937.69C6419.19,8941.85 6418.68,8945.54 6417.68,8948.75C6416.68,8951.96 6415.38,8954.54 6413.78,8956.47L6413.76,8956.51C6412.13,8958.45 6410.16,8960.08 6407.82,8961.36L6407.97,8961.29C6405.84,8962.52 6403.54,8963.5 6400.91,8964.23L6401.26,8964.16C6398.78,8964.8 6396.21,8965.27 6393.38,8965.56C6395.93,8967.76 6397.2,8971.24 6397.2,8976L6397.55,8994.54C6384.42,8999.93 6368.45,8995.69 6369.18,8995.86C6369.17,8992.86 6369.16,8989 6369.15,8987.54C6369.12,8985.04 6369.11,8982.86 6369.11,8981L6367.42,8981.29L6367.54,8981.27C6366.4,8981.46 6365.22,8981.56 6364.03,8981.56L6363.31,8981.55C6361.51,8981.51 6359.74,8981.33 6358.23,8981.03L6358.16,8981.02C6356.34,8980.68 6354.67,8979.91 6353.3,8978.83L6353.28,8978.81C6351.81,8977.7 6350.68,8976.15 6350.06,8974.31L6349.33,8972.61L6349.28,8972.5C6348.66,8971.18 6347.88,8969.95 6347.01,8968.86C6345.95,8967.49 6344.89,8966.56 6343.81,8966.07L6343.8,8966.06C6343.22,8965.79 6342.81,8965.2 6342.81,8964.52C6342.81,8964.23 6342.88,8963.96 6343,8963.74L6343.1,8963.56C6343.38,8963.01 6343.95,8962.64 6344.61,8962.64C6344.74,8962.64 6344.87,8962.66 6344.98,8962.68L6345.64,8962.83C6346.62,8963.03 6347.84,8963.61 6349.28,8964.59L6349.32,8964.62C6350.74,8965.6 6351.94,8966.88 6352.85,8968.42C6353.98,8970.43 6355.34,8971.96 6356.93,8973.02C6358.53,8974.07 6360.13,8974.6 6361.75,8974.6L6362.03,8974.6Z" style="fill:white;"/>
    </g>
</svg>
