<?xml version="1.0" encoding="UTF-8" standalone="no"?>
<!DOCTYPE svg PUBLIC "-//W3C//DTD SVG 1.1//EN" "http://www.w3.org/Graphics/SVG/1.1/DTD/svg11.dtd">
<svg width="100%" height="100%" viewBox="0 0 522 522" version="1.1" xmlns="http://www.w3.org/2000/svg" xmlns:xlink="http://www.w3.org/1999/xlink" xml:space="preserve" xmlns:serif="http://www.serif.com/" style="fill-rule:evenodd;clip-rule:evenodd;stroke-linejoin:round;stroke-miterlimit:2;">
    <g transform="matrix(1,0,0,1,-69.3252,-442.383)">
        <g transform="matrix(1,0,0,1,0,112)">
            <g transform="matrix(1,0,0,1,0,-112)">
                <path d="M329.911,442.383C186.09,442.383 69.325,559.147 69.325,702.969C69.325,846.79 186.09,963.554 329.911,963.554C473.732,963.554 590.497,846.79 590.497,702.969C590.497,559.147 473.732,442.383 329.911,442.383ZM329.911,475.617C455.39,475.617 557.262,577.49 557.262,702.969C557.262,828.447 455.39,930.32 329.911,930.32C204.433,930.32 102.56,828.447 102.56,702.969C102.56,577.49 204.433,475.617 329.911,475.617ZM454.377,614.337L431.699,868.391L329.759,896.652L228.1,868.43L205.446,614.337L454.377,614.337ZM285.825,697.44L405.078,697.44L405.703,690.436L407.124,674.637L407.868,666.277L251.768,666.277L252.513,674.637L260.173,760.516L368.178,760.516L364.56,800.933L329.803,810.314L329.803,810.316L329.775,810.324L295.068,800.952L292.849,776.098L261.566,776.098L265.931,825.03L329.768,842.75L329.911,842.711L329.911,842.705L393.69,825.03L394.158,819.764L401.483,737.721L402.243,729.352L288.674,729.352L285.825,697.44ZM244.443,560.932L258.93,560.932L258.93,545.285L274.768,545.285L274.768,592.667L258.931,592.667L258.931,576.801L244.444,576.801L244.444,592.667L228.607,592.667L228.607,545.285L244.443,545.285L244.443,560.932ZM393.541,545.285L409.384,545.285L409.384,577.006L431.655,577.006L431.655,592.667L393.541,592.667L393.541,545.285ZM295.596,560.998L281.653,560.998L281.653,545.285L325.382,545.285L325.382,560.998L311.433,560.998L311.433,592.667L295.596,592.667L295.596,560.998ZM332.321,545.285L348.834,545.285L358.992,561.934L369.14,545.285L385.66,545.285L385.66,592.667L369.888,592.667L369.888,569.182L358.992,586.029L358.719,586.029L347.817,569.182L347.817,592.667L332.321,592.667L332.321,545.285Z" style="fill:rgb(22,22,22);fill-rule:nonzero;"/>
            </g>
        </g>
    </g>
</svg>
