<?xml version="1.0" encoding="UTF-8" standalone="no"?>
<!DOCTYPE svg PUBLIC "-//W3C//DTD SVG 1.1//EN" "http://www.w3.org/Graphics/SVG/1.1/DTD/svg11.dtd">
<svg width="100%" height="100%" viewBox="0 0 467 467" version="1.1" xmlns="http://www.w3.org/2000/svg" xmlns:xlink="http://www.w3.org/1999/xlink" xml:space="preserve" xmlns:serif="http://www.serif.com/" style="fill-rule:evenodd;clip-rule:evenodd;stroke-linejoin:round;stroke-miterlimit:2;">
    <g transform="matrix(1,0,0,1,-458.814,-7024.18)">
        <g transform="matrix(1,0,0,1,0,6392)">
            <g transform="matrix(1,0,0,1,393.634,444)">
                <path d="M298.5,188.18C427.273,188.18 531.82,292.727 531.82,421.5C531.82,550.273 427.273,654.82 298.5,654.82C169.727,654.82 65.18,550.273 65.18,421.5C65.18,292.727 169.727,188.18 298.5,188.18ZM368.5,307.75L228.5,307.75C228.443,307.75 228.386,307.75 228.33,307.75C204.422,307.75 184.75,327.422 184.75,351.33C184.75,351.386 184.75,351.443 184.75,351.5L184.75,491.5C184.75,491.557 184.75,491.614 184.75,491.67C184.75,515.578 204.422,535.25 228.33,535.25C228.386,535.25 228.443,535.25 228.5,535.25L368.5,535.25C368.557,535.25 368.614,535.25 368.67,535.25C392.578,535.25 412.25,515.578 412.25,491.67C412.25,491.614 412.25,491.557 412.25,491.5L412.25,351.5C412.25,351.443 412.25,351.386 412.25,351.33C412.25,327.422 392.578,307.75 368.67,307.75C368.614,307.75 368.557,307.75 368.5,307.75ZM389.89,491.5C389.782,503.191 380.191,512.778 368.5,512.88L228.5,512.88C216.809,512.778 207.218,503.191 207.11,491.5L207.11,398.17L241.11,398.17C238.008,405.563 236.358,413.484 236.25,421.5C236.25,455.5 264.44,483.72 298.47,483.72C332.5,483.72 360.69,455.53 360.69,421.5C360.582,413.484 358.932,405.563 355.83,398.17L389.83,398.17L389.83,491.5L389.89,491.5ZM266.42,398.17C273.22,388.45 285.86,381.64 298.5,381.64C311.14,381.64 323.78,388.45 330.58,398.17C335.587,404.921 338.313,413.095 338.36,421.5C338.36,443.367 320.367,461.36 298.5,461.36C276.633,461.36 258.64,443.367 258.64,421.5C258.687,413.095 261.413,404.921 266.42,398.17ZM347.11,334L386,334L386,372.89L347.11,372.89L347.11,334Z" style="fill:rgb(250,250,250);"/>
            </g>
        </g>
    </g>
</svg>
