<?xml version="1.0" encoding="UTF-8" standalone="no"?>
<!DOCTYPE svg PUBLIC "-//W3C//DTD SVG 1.1//EN" "http://www.w3.org/Graphics/SVG/1.1/DTD/svg11.dtd">
<svg width="100%" height="100%" viewBox="0 0 522 522" version="1.1" xmlns="http://www.w3.org/2000/svg" xmlns:xlink="http://www.w3.org/1999/xlink" xml:space="preserve" xmlns:serif="http://www.serif.com/" style="fill-rule:evenodd;clip-rule:evenodd;stroke-linejoin:round;stroke-miterlimit:2;">
    <g transform="matrix(1,0,0,1,-1306.33,-442.383)">
        <g transform="matrix(1,0,0,1,0,112)">
            <g transform="matrix(1,0,0,1,0,-112)">
                <path d="M1566.91,442.383C1423.09,442.383 1306.33,559.147 1306.33,702.969C1306.33,846.79 1423.09,963.554 1566.91,963.554C1710.73,963.554 1827.5,846.79 1827.5,702.969C1827.5,559.147 1710.73,442.383 1566.91,442.383ZM1566.91,475.617C1692.39,475.617 1794.26,577.49 1794.26,702.969C1794.26,828.447 1692.39,930.32 1566.91,930.32C1441.43,930.32 1339.56,828.447 1339.56,702.969C1339.56,577.49 1441.43,475.617 1566.91,475.617ZM1692.53,612.324L1441.3,612.324L1464.84,867.712L1566.91,896.652L1668.95,867.712L1692.53,612.324ZM1631.12,665.478L1503.98,665.478L1495.33,760.504L1603.33,760.504L1599.8,800.953L1565.36,810.883L1530.38,800.803L1528.28,776.323L1496.53,776.323L1501.07,825.242L1565.36,843.497L1629.64,825.242L1638.49,729.241L1523.9,729.241L1525.36,697.228L1604.9,697.228L1606.07,715.552L1638.1,715.552L1631.12,665.478ZM1542.39,577.022L1519.98,577.022L1519.98,593.116L1558.45,593.116L1558.45,545.285L1542.39,545.285L1542.39,577.022ZM1613.85,545.528L1574.76,545.528L1574.76,562.279C1579.98,567.507 1582.71,570.009 1590.28,577.574C1585.85,577.574 1574.76,577.59 1574.76,577.59L1574.76,592.87L1613.85,592.87L1613.85,577.587L1598.23,562.279L1613.85,562.279L1613.85,545.528Z" style="fill:rgb(22,22,22);"/>
            </g>
        </g>
    </g>
</svg>
